<svg version="1.2" xmlns="http://www.w3.org/2000/svg" viewBox="0 0 79 80" width="79" height="80">
	<style>
		.s0 { fill: #f40d12 } 
		.s1 { fill: #ffffff } 
	</style>
	<g id="Symbols">
		<g id="logo/full/core">
			<g id="core-logo-full">
				<g id="icon">
					<path id="octagon" fill-rule="evenodd" class="s0" d="m21.41 1.74l-19.67 19.67c-1.12 1.11-1.74 2.62-1.74 4.19v27.82c0 1.57 0.62 3.08 1.74 4.19l19.67 19.67c1.11 1.11 2.61 1.73 4.19 1.73h27.82c1.57 0 3.08-0.62 4.19-1.73l19.67-19.67c1.11-1.11 1.73-2.62 1.73-4.19v-27.82c0-1.57-0.62-3.08-1.73-4.19l-19.67-19.67c-1.11-1.12-2.62-1.74-4.19-1.74h-27.82c-1.58 0-3.08 0.62-4.19 1.74z"/>
					<path id="Hand" fill-rule="evenodd" class="s1" d="m38.56 68.15c13.09 0 16.2-12.01 16.2-12.01l7.51-21.58c0 0 0.68-2.24 0.56-2.27-7-1.31-8.49 3.62-8.49 3.62 0 0-2.69 6.99-3.1 6.99-0.42 0-0.47-0.52-0.47-0.52v-25.09c0 0 0.13-3.24-3.19-3.24-3.33 0-3.16 3.25-3.16 3.25l0.01 18.53c0 0 0.04 0.75-0.58 0.75-0.55 0-0.52-0.72-0.52-0.72v-22.34c0 0 0.2-3.64-3.16-3.64-3.36 0-3.18 3.67-3.18 3.67l-0.03 22.03c0 0 0.04 0.68-0.51 0.68-0.52 0-0.5-0.67-0.5-0.67v-18.47c0 0 0.19-3.76-3.24-3.76-3.36 0-3.18 3.82-3.18 3.82l-0.03 19.51c0 0 0.06 0.57-0.46 0.57-0.56 0-0.55-0.57-0.55-0.57l-0.03-11.79c0 0 0.03-3.27-2.79-3.27-3.01 0-2.95 3.27-2.95 3.27v25.45c0.02 0-0.76 17.8 15.84 17.8z"/>
				</g>
			</g>
		</g>
	</g>
</svg>